#!OML:ASF F:\VICON\USERDATA\INSTALL\rory3\rory3.ASF
:FULLY-SPECIFIED
:DEGREES
314
root -5.19843 16.3491 18.7009 554.149 -62.3754 183.048
lowerback -1.68492 4.9686 3.55334
upperback -7.61836 6.51903 2.46854
thorax -6.90551 2.94039 0.35449
lowerneck -8.77822 -5.587 -7.90289
upperneck 23.7275 -9.17018 7.94347
head 9.65358 -4.4533 3.00802
rclavicle -6.84316e-014 -1.90833e-014
rhumerus 172.506 -155.732 104.925
rradius 15.1855
rwrist 6.66365
rhand -8.88178 16.6896
rfingers 7.12502
rthumb 17.0602 -12.5813
lclavicle -6.84316e-014 -1.90833e-014
lhumerus -16.0633 5.62638 37.355
lradius 39.7788
lwrist -5.67708
lhand 14.3427 17.0386
lfingers 7.12502
lthumb 39.2326 42.4917
rfemur -29.4673 26.9449 -13.5218
rtibia 25.6898
rfoot -88.5456 14.724
rtoes 62.4873
lfemur -44.6417 4.35748 -24.7361
ltibia 48.959
lfoot -24.7155 14.0892
ltoes -0.016086
315
root -5.28382 16.3379 18.7927 555.926 -60.7623 181.657
lowerback -1.91327 4.97432 3.886
upperback -7.93625 6.48134 1.7005
thorax -6.98736 2.86439 -0.611488
lowerneck -8.71954 -5.53657 -7.89132
upperneck 23.6035 -9.18216 8.24077
head 9.61317 -4.43737 3.10878
rclavicle 4.86029e-014 -1.74931e-014
rhumerus 171.314 -156.916 106.695
rradius 16.2921
rwrist 5.9238
rhand -8.38245 16.906
rfingers 7.12502
rthumb 17.5408 -12.3227
lclavicle 4.86029e-014 -1.74931e-014
lhumerus -16.4602 4.93728 36.8136
lradius 38.9688
lwrist -5.41074
lhand 14.6876 17.4164
lfingers 7.12502
lthumb 39.5575 42.7744
rfemur -28.9967 24.8535 -13.6199
rtibia 26.1133
rfoot -86.7115 12.2935
rtoes 62.3883
lfemur -44.9677 4.37004 -26.0221
ltibia 48.9139
lfoot -25.3582 15.1964
ltoes 0.36772
316
root -5.36264 16.3708 18.8382 554.689 -59.3575 183.292
lowerback -1.95147 4.99616 4.58845
upperback -8.14056 6.50771 1.87403
thorax -7.13416 2.81691 -0.816105
lowerneck -8.75622 -5.54422 -7.66947
upperneck 23.722 -9.19093 7.95852
head 9.63785 -4.45582 2.97021
rclavicle -6.12505e-014 -5.32743e-014
rhumerus 170.259 -157.645 108.912
rradius 17.1806
rwrist 5.86181
rhand -8.34563 17.2017
rfingers 7.12502
rthumb 17.5763 -12.0238
lclavicle -6.12505e-014 -5.32743e-014
lhumerus -17.2211 5.08508 36.627
lradius 38.1019
lwrist -6.36947
lhand 14.9602 17.5366
lfingers 7.12502
lthumb 39.8142 42.8184
rfemur -27.805 22.358 -10.8808
rtibia 26.0804
rfoot -84.7122 12.784
rtoes 62.0764
lfemur -44.8358 4.99278 -25.5435
ltibia 48.6262
lfoot -25.6167 16.177
ltoes 0.524481
317
root -5.43688 16.4221 18.8689 554.187 -57.8639 183.856
lowerback -1.84901 4.9323 4.61603
upperback -8.19708 6.425 1.95441
thorax -7.26488 2.76701 -0.755817
lowerneck -9.17263 -5.39216 -8.1131
upperneck 24.1755 -9.00341 8.23571
head 9.89654 -4.37483 3.1558
rclavicle -7.33018e-015 -1.11319e-014
rhumerus 169.591 -157.652 111.044
rradius 17.8334
rwrist 6.13709
rhand -8.09652 17.1287
rfingers 7.12502
rthumb 17.816 -12.0752
lclavicle -7.33018e-015 -1.11319e-014
lhumerus -17.8269 5.98722 36.4555
lradius 37.1069
lwrist -8.19157
lhand 15.0354 17.5082
lfingers 7.12502
lthumb 39.885 42.7688
rfemur -26.254 21.8626 -9.38127
rtibia 25.5753
rfoot -83.8399 12.2373
rtoes 62.0437
lfemur -44.2164 5.75278 -25.5571
ltibia 48.1124
lfoot -25.9493 16.7671
ltoes 1.50259
318
root -5.50484 16.4854 18.8715 553.331 -56.4208 184.634
lowerback -1.71185 4.86467 4.06126
upperback -8.12656 6.34415 2.47836
thorax -7.3913 2.77518 0.0828521
lowerneck -9.6947 -5.31171 -8.22558
upperneck 24.5538 -8.74023 7.75553
head 10.091 -4.29704 3.02689
rclavicle -3.82412e-014 -5.56597e-014
rhumerus 169.171 -158.504 113.655
rradius 18.4363
rwrist 5.41135
rhand -7.59167 16.9034
rfingers 7.12502
rthumb 18.3017 -12.2556
lclavicle -3.82412e-014 -5.56597e-014
lhumerus -18.5302 7.56926 36.7547
lradius 36.1039
lwrist -10.777
lhand 15.1615 17.3811
lfingers 7.12502
lthumb 40.0036 42.6061
rfemur -24.4141 22.9118 -7.95129
rtibia 24.8764
rfoot -83.4429 12.078
rtoes 62.159
lfemur -43.2625 6.83588 -25.3116
ltibia 47.5209
lfoot -26.3848 16.7808
ltoes 2.95214
319
root -5.59054 16.5069 18.979 553.121 -55.5226 185.619
lowerback -1.79924 4.82608 5.3532
upperback -8.4351 6.28781 2.54179
thorax -7.55654 2.63198 -0.549057
lowerneck -10.0476 -5.22829 -8.14388
upperneck 24.7807 -8.48983 7.22247
head 10.1897 -4.22073 2.84825
rclavicle 4.96962e-014 4.92986e-014
rhumerus 168.651 -160.572 116.005
rradius 18.6034
rwrist 5.12219
rhand -9.23832 16.7977
rfingers 7.12502
rthumb 16.717 -12.5025
lclavicle 4.96962e-014 4.92986e-014
lhumerus -19.3091 8.88342 36.5404
lradius 35.3423
lwrist -13.1472
lhand 15.7193 17.1898
lfingers 7.12502
lthumb 40.5283 42.2542
rfemur -23.2658 20.2275 -6.46204
rtibia 24.1341
rfoot -80.2653 10.1861
rtoes 62.3073
lfemur -43.5566 6.25956 -25.0706
ltibia 46.9843
lfoot -26.938 17.8151
ltoes 4.61556
320
root -5.6593 16.5407 19.0352 552.841 -54.3812 186.406
lowerback -1.85251 4.8321 5.83315
upperback -8.57642 6.28789 2.71973
thorax -7.65522 2.58556 -0.621211
lowerneck -10.4885 -5.19701 -8.1515
upperneck 25.0643 -8.34785 6.88397
head 10.3511 -4.18206 2.73719
rclavicle -2.29845e-014 -5.08889e-014
rhumerus 168.499 -160.353 118.8
rradius 18.6133
rwrist 4.7759
rhand -7.562 16.6242
rfingers 7.12502
rthumb 18.3302 -12.5322
lclavicle -2.29845e-014 -5.08889e-014
lhumerus -20.0524 9.66504 36.1621
lradius 34.8466
lwrist -14.6477
lhand 16.6737 16.698
lfingers 7.12502
lthumb 41.4247 41.4778
rfemur -22.0148 18.6302 -4.96485
rtibia 23.5369
rfoot -77.4582 9.19688
rtoes 62.505
lfemur -43.4689 6.36719 -24.8387
ltibia 46.453
lfoot -27.202 18.7668
ltoes 4.74471
321
root -5.72013 16.577 19.0898 552.875 -52.9944 186.699
lowerback -1.73614 4.89086 6.0482
upperback -8.66994 6.37231 2.72448
thorax -7.80102 2.59819 -0.746718
lowerneck -10.8748 -5.15753 -7.78261
upperneck 25.1735 -8.25158 6.53003
head 10.4246 -4.1318 2.55209
rclavicle -4.94228e-014 -8.0309e-014
rhumerus 168.544 -158.22 121.597
rradius 18.332
rwrist 5.61631
rhand -4.95394 16.3074
rfingers 7.12502
rthumb 20.8377 -12.5936
lclavicle -4.94228e-014 -8.0309e-014
lhumerus -20.6542 10.3675 35.6795
lradius 34.3299
lwrist -15.6931
lhand 17.4476 16.4859
lfingers 7.12502
lthumb 42.1503 41.0254
rfemur -20.9147 17.0675 -3.8328
rtibia 23.1223
rfoot -74.4713 7.94652
rtoes 62.5865
lfemur -43.2937 6.55632 -24.8704
ltibia 45.9877
lfoot -27.6425 19.4406
ltoes 6.17887
322
root -5.78096 16.6099 19.1341 553.147 -51.7433 187
lowerback -1.93413 4.95502 6.29952
upperback -8.86929 6.42392 2.5928
thorax -7.86173 2.58377 -1.00963
lowerneck -11.0619 -5.12154 -7.31409
upperneck 25.2105 -8.22808 6.27932
head 10.4393 -4.10268 2.38202
rclavicle -3.51103e-014 -1.98785e-014
rhumerus 168.38 -156.519 124.062
rradius 17.3995
rwrist 8.50564
rhand -5.76403 16.6898
rfingers 7.12502
rthumb 20.0592 -12.2947
lclavicle -3.51103e-014 -1.98785e-014
lhumerus -21.0621 10.8387 34.9228
lradius 33.7949
lwrist -16.2061
lhand 18.0168 16.8433
lfingers 7.12502
lthumb 42.6833 41.2002
rfemur -20.0975 15.8512 -2.80624
rtibia 22.9585
rfoot -72.0118 6.19523
rtoes 62.6617
lfemur -43.3697 6.66374 -24.8821
ltibia 45.5643
lfoot -28.3331 19.8896
ltoes 8.35742
323
root -5.8365 16.6408 19.1656 552.853 -50.4675 187.779
lowerback -1.98976 5.02014 6.65085
upperback -8.96935 6.49864 2.66383
thorax -7.90978 2.58283 -1.12377
lowerneck -11.2961 -5.07279 -7.01211
upperneck 25.2879 -8.16937 6.094
head 10.4863 -4.06443 2.26688
rclavicle 5.82439e-014 7.87187e-014
rhumerus 168.561 -153.552 126.79
rradius 16.2789
rwrist 12.2589
rhand -5.67465 17.1911
rfingers 7.12502
rthumb 20.1451 -11.7844
lclavicle 5.82439e-014 7.87187e-014
lhumerus -21.5271 10.8196 34.231
lradius 33.3255
lwrist -15.875
lhand 18.2215 17.443
lfingers 7.12502
lthumb 42.8748 41.7331
rfemur -19.1856 15.6514 -1.48114
rtibia 22.9384
rfoot -70.2264 5.42062
rtoes 62.6795
lfemur -43.2859 6.77042 -24.4406
ltibia 45.2516
lfoot -29.1076 20.4821
ltoes 9.76322
324
root -5.87938 16.665 19.1915 552.427 -48.9991 188.746
lowerback -1.95221 5.20251 6.8926
upperback -9.10403 6.73904 2.81175
thorax -8.0606 2.66716 -1.11178
lowerneck -11.3659 -5.02451 -6.59055
upperneck 25.2349 -8.13148 5.8879
head 10.4487 -4.03081 2.12584
rclavicle -5.64051e-015 -1.82882e-014
rhumerus 168.608 -150.793 129.707
rradius 15.0918
rwrist 16.2879
rhand -6.14462 17.2258
rfingers 7.12502
rthumb 19.6933 -11.7966
lclavicle -5.64051e-015 -1.82882e-014
lhumerus -21.7711 10.8773 33.5067
lradius 32.6271
lwrist -15.7049
lhand 18.6424 17.8879
lfingers 7.12502
lthumb 43.2683 42.0383
rfemur -18.484 15.5218 -0.021053
rtibia 23.0612
rfoot -68.4858 5.17052
rtoes 62.4844
lfemur -43.3319 7.18669 -23.8765
ltibia 45.027
lfoot -29.6024 21.3131
ltoes 9.82803
325
root -5.9208 16.6843 19.2157 552.42 -47.667 189.349
lowerback -2.03802 5.45968 7.08367
upperback -9.31369 7.0599 2.74484
thorax -8.19391 2.78595 -1.2909
lowerneck -11.1908 -5.07434 -6.41876
upperneck 24.8775 -8.26016 6.05306
head 10.2932 -4.06022 2.14306
rclavicle -1.21507e-014 4.77083e-015
rhumerus 168.271 -146.767 133.002
rradius 13.7765
rwrist 21.6534
rhand -6.44897 17.2317
rfingers 7.12502
rthumb 19.4007 -11.8205
lclavicle -1.21507e-014 4.77083e-015
lhumerus -21.6283 10.4593 32.7433
lradius 31.9312
lwrist -15.471
lhand 19.4911 18.1565
lfingers 7.12502
lthumb 44.0607 42.0167
rfemur -17.8758 14.4399 1.26328
rtibia 23.2716
rfoot -66.4465 4.5943
rtoes 62.4592
lfemur -43.5206 7.59814 -23.5857
ltibia 44.8458
lfoot -30.0801 22.0882
ltoes 9.54493
326
root -5.96053 16.7034 19.2427 552.82 -46.4192 189.425
lowerback -2.29989 5.4547 6.88154
upperback -9.37399 7.00576 2.81249
thorax -8.14173 2.76879 -1.08695
lowerneck -11.1704 -4.92628 -6.7165
upperneck 24.4591 -8.05802 6.52844
head 10.1567 -3.94003 2.38865
rclavicle -3.95085e-015 1.74931e-014
rhumerus 168.712 -140.495 136.15
rradius 12.2573
rwrist 29.6574
rhand -5.95299 17.3874
rfingers 7.12502
rthumb 19.8775 -11.6161
lclavicle -3.95085e-015 1.74931e-014
lhumerus -21.9744 10.9228 31.7409
lradius 31.2219
lwrist -15.443
lhand 20.1621 18.3811
lfingers 7.12502
lthumb 44.686 42.0033
rfemur -17.2425 13.3018 2.13446
rtibia 23.5505
rfoot -64.7198 2.36729
rtoes 62.4986
lfemur -43.6608 7.90718 -23.6853
ltibia 44.5684
lfoot -30.5154 22.6725
ltoes 9.72374
